<?xml version="1.0" encoding="UTF-8"?>
<svg viewBox="0 0 744.09 524.41" xmlns="http://www.w3.org/2000/svg">
 <defs>
  <filter id="a">
   <feGaussianBlur stdDeviation="81.084917"/>
  </filter>
 </defs>
 <g stroke-width=".1">
  <rect transform="rotate(10.978 369.84 266.72) matrix(.11047 -.023735 .022163 .10315 300.37 92.346)" x="-2524.5" y="44.529" width="5602.9" height="3419.3" fill="#c8c4b7" filter="url(#a)"/>
  <rect transform="rotate(10.978 381.13 251.06) matrix(.11047 -.023735 .022163 .10315 308.47 74.821)" x="-2500.4" y="68.135" width="5602.9" height="3419.3" fill="#ffecaa"/>
 </g>
 <g transform="rotate(10.978 1616.9 468.13) matrix(.22503 0 0 .22928 254.02 38.27)">
  <g stroke-width=".08">
   <path d="m513.22 1348.1a155.35 146.48 0 1 1 -310.7 56.78 155.35 146.48 0 1 1 310.7 -56.78z" fill="#ecca3e"/>
   <path d="m539.26 1317.1a155.35 146.48 0 1 1 -310.7 56.78 155.35 146.48 0 1 1 310.7 -56.78z" fill="#d40000"/>
  </g>
  <g stroke-width=".1">
   <path d="m547.81 1309.6l-152.09 27.81-31.844 143.87c17.672 2.7 36.123 2.74 54.844-0.67993 84.378-15.42 141.36-91.54 129.09-171z" fill="#e00"/>
   <path d="m397.03 1184.9c-10.466-0.11011-21.125 0.7898-31.844 2.75-85.751 15.67-143.34 94.01-128.56 174.87 11.551 63.21 63.973 109.14 127.25 118.78l31.844-143.87 152.09-27.81c-0.19898-1.3-0.26294-2.5801-0.5-3.8801-12.93-70.75-77.015-120.11-150.28-120.84z" fill="#f00"/>
   <path d="m332.68 1265.6l-11.417 8.4402-21.059 15.74c-8.597 18.28-7.398 37.67-2.017 58.27 13.962 53.44 53.709 79.56 109.79 73.19 28.708-3.2599 55.008-12.92 71.137-33.43l29.248-36.68-175.68-85.53z" fill="#a00"/>
  </g>
  <g stroke-width=".103">
   <path d="m546.32 1252.7a121.42 114.49 0 1 1 -242.85 44.38 121.42 114.49 0 1 1 242.85 -44.38z" fill="#d40000"/>
   <path d="m555.03 1244.7a121.42 114.49 0 1 1 -242.85 44.39 121.42 114.49 0 1 1 242.85 -44.39z" fill="#f00"/>
  </g>
 </g>
</svg>
